<svg width="122" height="121" viewBox="0 0 122 121" fill="none" xmlns="http://www.w3.org/2000/svg">
<path d="M60.9997 0.083252C27.6497 0.083252 0.583008 27.1499 0.583008 60.4999C0.583008 93.8499 27.6497 120.917 60.9997 120.917C94.3497 120.917 121.416 93.8499 121.416 60.4999C121.416 27.1499 94.3497 0.083252 60.9997 0.083252ZM60.9997 108.833C34.3559 108.833 12.6663 87.1437 12.6663 60.4999C12.6663 33.8562 34.3559 12.1666 60.9997 12.1666C87.6434 12.1666 109.333 33.8562 109.333 60.4999C109.333 87.1437 87.6434 108.833 60.9997 108.833ZM88.7309 33.7958L48.9163 73.6103L33.2684 58.0228L24.7497 66.5416L48.9163 90.7082L97.2497 42.3749L88.7309 33.7958Z" fill="#006FEE"/>
</svg>
