<svg version="1.1" id="Layer_1" xmlns="http://www.w3.org/2000/svg" xmlns:xlink="http://www.w3.org/1999/xlink" x="0px" y="0px"
	 width="100%" viewBox="0 0 719 233" enable-background="new 0 0 719 233" xml:space="preserve">
<path fill="#000000" opacity="1.000000" stroke="none" 
	d="
M549.000000,234.000000 
	C366.047913,234.000000 183.595840,234.000000 1.071875,234.000000 
	C1.071875,156.401703 1.071875,78.803314 1.071875,1.102463 
	C240.666641,1.102463 480.333313,1.102463 719.977539,1.102463 
	C719.977539,78.737442 719.977539,156.368729 719.977539,234.000000 
	C663.136658,234.000000 606.318359,234.000000 549.000000,234.000000 
M345.500000,22.999718 
	C234.174255,22.999737 122.848511,22.998995 11.522765,23.001722 
	C5.014263,23.001883 5.003088,23.014946 5.002628,29.600092 
	C4.999312,77.096863 4.998121,124.593628 5.003962,172.090393 
	C5.004809,178.980270 5.023816,178.997498 12.024298,178.997589 
	C244.675140,179.000610 477.325958,179.000610 709.976807,178.997589 
	C716.975647,178.997498 716.995483,178.980164 716.996399,172.089020 
	C717.002563,124.925568 717.000366,77.762108 716.999451,30.598656 
	C716.999329,23.003374 716.995972,23.000235 709.475281,23.000193 
	C588.483521,22.999527 467.491760,22.999720 345.500000,22.999718 
z"/>
<path fill="#10253F" opacity="1.000000" stroke="none" 
	d="
M346.000000,22.999718 
	C467.491760,22.999720 588.483521,22.999527 709.475281,23.000193 
	C716.995972,23.000235 716.999329,23.003374 716.999451,30.598656 
	C717.000366,77.762108 717.002563,124.925568 716.996399,172.089020 
	C716.995483,178.980164 716.975647,178.997498 709.976807,178.997589 
	C477.325958,179.000610 244.675140,179.000610 12.024298,178.997589 
	C5.023816,178.997498 5.004809,178.980270 5.003962,172.090393 
	C4.998121,124.593628 4.999312,77.096863 5.002628,29.600092 
	C5.003088,23.014946 5.014263,23.001883 11.522765,23.001722 
	C122.848511,22.998995 234.174255,22.999737 346.000000,22.999718 
M103.500000,26.028229 
	C73.674408,26.028284 43.848076,26.133741 14.023966,25.923779 
	C9.101176,25.889124 7.892307,27.495480 7.908246,32.206142 
	C8.063288,78.027496 8.082692,123.849930 7.888246,169.670990 
	C7.866424,174.813293 9.410600,176.074585 14.400459,176.072098 
	C245.509308,175.956680 476.618225,175.954788 707.727051,176.080460 
	C712.903687,176.083267 714.121399,174.500305 714.102051,169.543503 
	C713.924866,124.222191 713.998779,78.899902 713.997620,33.577892 
	C713.997375,26.031897 713.993530,26.028667 706.349609,26.028648 
	C505.733063,26.028111 305.116547,26.028290 103.500000,26.028229 
z"/>
<path fill="#18375E" opacity="1.000000" stroke="none" 
	d="
M104.000000,26.028288 
	C305.116547,26.028290 505.733063,26.028111 706.349609,26.028648 
	C713.993530,26.028667 713.997375,26.031897 713.997620,33.577892 
	C713.998779,78.899902 713.924866,124.222191 714.102051,169.543503 
	C714.121399,174.500305 712.903687,176.083267 707.727051,176.080460 
	C476.618225,175.954788 245.509308,175.956680 14.400459,176.072098 
	C9.410600,176.074585 7.866424,174.813293 7.888246,169.670990 
	C8.082692,123.849930 8.063288,78.027496 7.908246,32.206142 
	C7.892307,27.495480 9.101176,25.889124 14.023966,25.923779 
	C43.848076,26.133741 73.674408,26.028284 104.000000,26.028288 
M125.860939,62.303040 
	C111.664291,72.784355 105.502823,89.401726 109.528618,106.351059 
	C115.261642,130.488174 139.976471,143.755890 164.514618,135.869339 
	C187.245712,128.563568 198.653397,103.229866 189.523590,80.330414 
	C179.951675,56.322029 150.356140,47.680065 125.860939,62.303040 
M549.344177,112.761429 
	C559.143738,86.315880 545.813904,61.417542 518.718262,57.668167 
	C506.702515,56.005474 494.265442,57.387611 481.934540,57.387611 
	C481.934540,83.591362 481.934540,109.665199 481.934540,135.897934 
	C493.656128,135.897934 505.191467,136.652374 516.586304,135.709442 
	C531.259338,134.495255 542.693604,127.395660 549.344177,112.761429 
M216.132889,144.510468 
	C216.132889,139.942200 216.132889,135.373947 216.132889,130.499542 
	C232.030457,139.963867 245.437515,139.146057 254.945053,128.493439 
	C263.792633,118.580238 264.370361,102.744492 256.283875,92.074219 
	C252.397324,86.945839 247.206558,83.754326 241.014282,82.418228 
	C232.205566,80.517593 223.892471,81.754250 216.425720,88.051071 
	C216.182495,85.918190 216.024231,84.530266 215.868942,83.168381 
	C212.160599,83.168381 208.739258,83.168381 205.328964,83.168381 
	C205.328964,109.087975 205.328964,134.750427 205.328964,160.321045 
	C209.103622,160.321045 212.490997,160.321045 216.132889,160.321045 
	C216.132889,155.134048 216.132889,150.319016 216.132889,144.510468 
M453.261871,57.100376 
	C452.618896,56.928661 451.976166,56.755993 451.332916,56.585361 
	C429.639954,50.831127 408.365417,61.604950 401.275177,81.935349 
	C393.925293,103.010262 403.301697,125.821747 422.858551,134.444855 
	C440.368195,142.165298 461.302582,137.220276 470.927673,122.823486 
	C468.171173,120.538979 465.380646,118.226250 462.613098,115.932564 
	C446.663147,129.586807 431.228333,130.402145 419.745178,118.309959 
	C408.716675,106.696571 408.891235,86.314209 420.119171,74.645935 
	C431.210693,63.119423 445.198822,63.406639 459.522461,75.601700 
	C462.678253,73.328148 465.877777,71.023094 469.142700,68.670906 
	C465.287140,62.958302 460.140533,59.497528 453.261871,57.100376 
M273.139618,99.951439 
	C269.264038,115.311775 274.412415,128.606369 286.528290,134.524719 
	C299.241943,140.735062 314.749207,136.966095 323.772247,125.259987 
	C321.055084,123.144798 318.335693,121.027863 315.463867,118.792267 
	C309.817047,125.348030 303.070770,128.587524 294.562836,126.055794 
	C288.611145,124.284744 285.488861,119.851311 283.734894,113.320709 
	C297.800964,113.320709 311.330902,113.320709 324.906036,113.320709 
	C324.906036,109.745995 325.207214,106.735161 324.852631,103.803650 
	C323.500092,92.622513 316.007050,84.268913 305.726959,82.162926 
	C291.480804,79.244461 279.184723,85.729584 273.139618,99.951439 
M349.617401,134.067368 
	C349.625610,126.244186 349.397583,118.410591 349.741791,110.602219 
	C349.913818,106.698128 350.553955,102.606377 352.009277,99.015701 
	C354.219299,93.562988 360.630981,90.966026 366.666107,92.215668 
	C371.480133,93.212471 373.863098,96.416725 374.445282,102.973984 
	C374.665436,105.453690 374.611053,107.961037 374.616394,110.455933 
	C374.634491,118.892143 374.623291,127.328415 374.623291,135.780518 
	C378.635193,135.780518 382.069519,135.780518 385.713318,135.780518 
	C385.713318,123.607834 386.247711,111.638664 385.547882,99.742081 
	C384.965149,89.835312 379.120117,83.614075 370.668793,82.122986 
	C363.346130,80.831024 356.398987,81.691048 350.507782,86.832222 
	C350.172791,87.124565 349.662231,87.215683 349.067352,87.471992 
	C348.879059,85.911049 348.710907,84.517113 348.543335,83.127777 
	C344.864075,83.127777 341.599091,83.127777 338.275879,83.127777 
	C338.275879,100.741173 338.275879,118.128693 338.275879,136.426941 
	C342.309906,135.911163 345.918549,135.449753 349.617401,134.067368 
M567.937256,136.011124 
	C569.449280,134.929810 571.315002,134.124283 572.411194,132.718704 
	C576.799377,127.092140 580.948669,121.279305 585.428589,115.206970 
	C590.093933,121.433899 594.400024,127.344063 598.918762,133.086884 
	C599.923706,134.364105 601.609009,135.728088 603.100098,135.879410 
	C606.967468,136.271851 610.901123,136.011154 615.757019,136.011154 
	C607.933533,125.951164 600.752930,116.717842 593.579468,107.493690 
	C599.803711,99.233528 605.721863,91.379547 612.103760,82.910210 
	C608.713013,82.910210 606.343689,83.194893 604.070129,82.849442 
	C599.678040,82.182098 597.018127,83.960861 594.813538,87.681923 
	C592.381226,91.787498 589.328125,95.525322 586.167847,99.952171 
	C582.308960,94.856407 578.803223,90.054329 575.077209,85.429642 
	C574.162048,84.293716 572.577942,83.140343 571.215454,83.026970 
	C567.336426,82.704163 563.413025,82.913643 558.618774,82.913643 
	C565.500549,91.621201 571.749146,99.527641 578.058167,107.510597 
	C570.771606,116.917496 563.621033,126.148773 555.980530,136.012558 
	C560.416626,136.012558 563.741943,136.012558 567.937256,136.011124 
z"/>
<path fill="#FBFBFC" opacity="1.000000" stroke="none" 
	d="
M126.169724,62.112068 
	C150.356140,47.680065 179.951675,56.322029 189.523590,80.330414 
	C198.653397,103.229866 187.245712,128.563568 164.514618,135.869339 
	C139.976471,143.755890 115.261642,130.488174 109.528618,106.351059 
	C105.502823,89.401726 111.664291,72.784355 126.169724,62.112068 
M165.309128,69.999222 
	C153.170135,63.847752 139.975891,65.177444 130.871353,73.469795 
	C121.454689,82.046425 118.380867,96.581711 123.392250,108.836533 
	C128.038681,120.198921 138.900879,127.213715 151.335739,126.882408 
	C164.218643,126.539162 175.016174,118.219429 178.652695,105.834099 
	C182.668121,92.158295 177.785156,78.509232 165.309128,69.999222 
z"/>
<path fill="#FBFBFC" opacity="1.000000" stroke="none" 
	d="
M549.201660,113.118149 
	C542.693604,127.395660 531.259338,134.495255 516.586304,135.709442 
	C505.191467,136.652374 493.656128,135.897934 481.934540,135.897934 
	C481.934540,109.665199 481.934540,83.591362 481.934540,57.387611 
	C494.265442,57.387611 506.702515,56.005474 518.718262,57.668167 
	C545.813904,61.417542 559.143738,86.315880 549.201660,113.118149 
M493.618927,118.450668 
	C493.618927,120.524178 493.618927,122.597694 493.618927,124.943352 
	C499.487885,124.943352 504.619904,124.991722 509.750732,124.934937 
	C531.504395,124.694214 542.790161,111.220337 539.178101,89.806595 
	C537.398621,79.257355 531.454285,71.838028 521.004883,69.779617 
	C512.191223,68.043419 503.014465,68.150398 493.618896,67.411705 
	C493.618896,84.912537 493.618896,101.185410 493.618927,118.450668 
z"/>
<path fill="#FCFCFD" opacity="1.000000" stroke="none" 
	d="
M216.132889,145.007217 
	C216.132889,150.319016 216.132889,155.134048 216.132889,160.321045 
	C212.490997,160.321045 209.103622,160.321045 205.328964,160.321045 
	C205.328964,134.750427 205.328964,109.087975 205.328964,83.168381 
	C208.739258,83.168381 212.160599,83.168381 215.868942,83.168381 
	C216.024231,84.530266 216.182495,85.918190 216.425720,88.051071 
	C223.892471,81.754250 232.205566,80.517593 241.014282,82.418228 
	C247.206558,83.754326 252.397324,86.945839 256.283875,92.074219 
	C264.370361,102.744492 263.792633,118.580238 254.945053,128.493439 
	C245.437515,139.146057 232.030457,139.963867 216.132889,130.499542 
	C216.132889,135.373947 216.132889,139.942200 216.132889,145.007217 
M249.973312,107.787857 
	C248.218216,96.867622 240.901093,90.883385 230.809341,92.114784 
	C221.641357,93.233467 215.376770,101.289948 216.192596,110.912415 
	C217.018417,120.652847 224.252625,127.234299 233.756073,126.891121 
	C243.606064,126.535439 249.726715,119.659401 249.973312,107.787857 
z"/>
<path fill="#FAFBFB" opacity="1.000000" stroke="none" 
	d="
M453.637085,57.225525 
	C460.140533,59.497528 465.287140,62.958302 469.142700,68.670906 
	C465.877777,71.023094 462.678253,73.328148 459.522461,75.601700 
	C445.198822,63.406639 431.210693,63.119423 420.119171,74.645935 
	C408.891235,86.314209 408.716675,106.696571 419.745178,118.309959 
	C431.228333,130.402145 446.663147,129.586807 462.613098,115.932564 
	C465.380646,118.226250 468.171173,120.538979 470.927673,122.823486 
	C461.302582,137.220276 440.368195,142.165298 422.858551,134.444855 
	C403.301697,125.821747 393.925293,103.010262 401.275177,81.935349 
	C408.365417,61.604950 429.639954,50.831127 451.332916,56.585361 
	C451.976166,56.755993 452.618896,56.928661 453.637085,57.225525 
z"/>
<path fill="#FBFCFD" opacity="1.000000" stroke="none" 
	d="
M273.282593,99.575302 
	C279.184723,85.729584 291.480804,79.244461 305.726959,82.162926 
	C316.007050,84.268913 323.500092,92.622513 324.852631,103.803650 
	C325.207214,106.735161 324.906036,109.745995 324.906036,113.320709 
	C311.330902,113.320709 297.800964,113.320709 283.734894,113.320709 
	C285.488861,119.851311 288.611145,124.284744 294.562836,126.055794 
	C303.070770,128.587524 309.817047,125.348030 315.463867,118.792267 
	C318.335693,121.027863 321.055084,123.144798 323.772247,125.259987 
	C314.749207,136.966095 299.241943,140.735062 286.528290,134.524719 
	C274.412415,128.606369 269.264038,115.311775 273.282593,99.575302 
M292.853485,93.006348 
	C288.082916,94.897247 285.190491,98.270729 284.036224,103.362473 
	C293.979340,103.362473 303.356018,103.362473 312.759460,103.362473 
	C311.665863,94.119141 304.423035,90.227158 292.853485,93.006348 
z"/>
<path fill="#F8F9FA" opacity="1.000000" stroke="none" 
	d="
M349.572296,134.527863 
	C345.918549,135.449753 342.309906,135.911163 338.275879,136.426941 
	C338.275879,118.128693 338.275879,100.741173 338.275879,83.127777 
	C341.599091,83.127777 344.864075,83.127777 348.543335,83.127777 
	C348.710907,84.517113 348.879059,85.911049 349.067352,87.471992 
	C349.662231,87.215683 350.172791,87.124565 350.507782,86.832222 
	C356.398987,81.691048 363.346130,80.831024 370.668793,82.122986 
	C379.120117,83.614075 384.965149,89.835312 385.547882,99.742081 
	C386.247711,111.638664 385.713318,123.607834 385.713318,135.780518 
	C382.069519,135.780518 378.635193,135.780518 374.623291,135.780518 
	C374.623291,127.328415 374.634491,118.892143 374.616394,110.455933 
	C374.611053,107.961037 374.665436,105.453690 374.445282,102.973984 
	C373.863098,96.416725 371.480133,93.212471 366.666107,92.215668 
	C360.630981,90.966026 354.219299,93.562988 352.009277,99.015701 
	C350.553955,102.606377 349.913818,106.698128 349.741791,110.602219 
	C349.397583,118.410591 349.625610,126.244186 349.572296,134.527863 
z"/>
<path fill="#FBFBFC" opacity="1.000000" stroke="none" 
	d="
M567.502319,136.011841 
	C563.741943,136.012558 560.416626,136.012558 555.980530,136.012558 
	C563.621033,126.148773 570.771606,116.917496 578.058167,107.510597 
	C571.749146,99.527641 565.500549,91.621201 558.618774,82.913643 
	C563.413025,82.913643 567.336426,82.704163 571.215454,83.026970 
	C572.577942,83.140343 574.162048,84.293716 575.077209,85.429642 
	C578.803223,90.054329 582.308960,94.856407 586.167847,99.952171 
	C589.328125,95.525322 592.381226,91.787498 594.813538,87.681923 
	C597.018127,83.960861 599.678040,82.182098 604.070129,82.849442 
	C606.343689,83.194893 608.713013,82.910210 612.103760,82.910210 
	C605.721863,91.379547 599.803711,99.233528 593.579468,107.493690 
	C600.752930,116.717842 607.933533,125.951164 615.757019,136.011154 
	C610.901123,136.011154 606.967468,136.271851 603.100098,135.879410 
	C601.609009,135.728088 599.923706,134.364105 598.918762,133.086884 
	C594.400024,127.344063 590.093933,121.433899 585.428589,115.206970 
	C580.948669,121.279305 576.799377,127.092140 572.411194,132.718704 
	C571.315002,134.124283 569.449280,134.929810 567.502319,136.011841 
z"/>
<path fill="#19395F" opacity="1.000000" stroke="none" 
	d="
M165.635529,70.179794 
	C177.785156,78.509232 182.668121,92.158295 178.652695,105.834099 
	C175.016174,118.219429 164.218643,126.539162 151.335739,126.882408 
	C138.900879,127.213715 128.038681,120.198921 123.392250,108.836533 
	C118.380867,96.581711 121.454689,82.046425 130.871353,73.469795 
	C139.975891,65.177444 153.170135,63.847752 165.635529,70.179794 
z"/>
<path fill="#19385F" opacity="1.000000" stroke="none" 
	d="
M493.618896,117.954475 
	C493.618896,101.185410 493.618896,84.912537 493.618896,67.411705 
	C503.014465,68.150398 512.191223,68.043419 521.004883,69.779617 
	C531.454285,71.838028 537.398621,79.257355 539.178101,89.806595 
	C542.790161,111.220337 531.504395,124.694214 509.750732,124.934937 
	C504.619904,124.991722 499.487885,124.943352 493.618927,124.943352 
	C493.618927,122.597694 493.618927,120.524178 493.618896,117.954475 
z"/>
<path fill="#1B3A61" opacity="1.000000" stroke="none" 
	d="
M249.985657,108.216248 
	C249.726715,119.659401 243.606064,126.535439 233.756073,126.891121 
	C224.252625,127.234299 217.018417,120.652847 216.192596,110.912415 
	C215.376770,101.289948 221.641357,93.233467 230.809341,92.114784 
	C240.901093,90.883385 248.218216,96.867622 249.985657,108.216248 
z"/>
<path fill="#254368" opacity="1.000000" stroke="none" 
	d="
M293.247833,92.910660 
	C304.423035,90.227158 311.665863,94.119141 312.759460,103.362473 
	C303.356018,103.362473 293.979340,103.362473 284.036224,103.362473 
	C285.190491,98.270729 288.082916,94.897247 293.247833,92.910660 
z"/>
</svg>