<svg width="24" height="24" viewBox="0 0 24 24" fill="none" xmlns="http://www.w3.org/2000/svg">
<path d="M21.2701 11.6927L21.3761 11.4737L21.2691 11.2552C19.5355 7.71455 15.9818 5.47505 12 5.47505C11.371 5.47505 10.764 5.5474 10.1763 5.65424L9.31666 4.7946C10.1776 4.58578 11.0748 4.47505 12 4.47505C16.7173 4.47505 20.7581 7.3662 22.4609 11.4755C21.8581 12.9362 20.9573 14.2345 19.8342 15.3122L19.1352 14.6131C19.9997 13.7896 20.7302 12.8093 21.2701 11.6927ZM15.99 11.463V11.465C15.99 11.466 15.99 11.467 15.99 11.4679L14.6969 10.1749C14.403 9.56091 13.9041 9.06208 13.2902 8.76813L11.9971 7.47505C11.9981 7.47505 11.999 7.47505 12 7.47505C14.2057 7.47505 15.9989 9.26259 15.99 11.463ZM3.42115 3.13351L20.443 20.1649L19.74 20.8679L16.6736 17.8015L16.4414 17.5693L16.1361 17.6901C14.8538 18.1973 13.4561 18.475 12 18.475C7.28261 18.475 3.24178 15.5838 1.539 11.4744C2.28272 9.66745 3.48758 8.10502 4.9988 6.91829L5.44218 6.57012L5.04355 6.1715L2.71586 3.8438L3.42115 3.13351ZM9.86355 10.9915L9.01 10.1379V11.3386C9.00977 11.3406 9.00941 11.3437 9.00886 11.348L9.00849 11.351C9.00579 11.3724 9 11.4184 9 11.475C9 13.1312 10.3439 14.475 12 14.475C12.1046 14.475 12.1991 14.4509 12.2344 14.4419C12.237 14.4412 12.2393 14.4406 12.2413 14.4401L13.098 14.2259L12.4736 13.6015L9.86355 10.9915ZM6.46355 7.5915L6.15487 7.28282L5.80737 7.54703C4.54084 8.51001 3.4681 9.74926 2.73092 11.2552L2.6233 11.4751L2.73094 11.6949C4.46448 15.2355 8.01821 17.475 12 17.475C12.9994 17.475 13.9638 17.3277 14.8816 17.0774L15.7128 16.8507L15.1036 16.2415L14.1236 15.2615L13.8848 15.0227L13.5741 15.155C13.0944 15.3593 12.5609 15.475 12 15.475C9.79614 15.475 8 13.6789 8 11.475C8 10.9146 8.11551 10.38 8.32129 9.88795L8.45066 9.5786L8.21355 9.3415L6.46355 7.5915Z" fill="black" stroke="#A1A1AA"/>
</svg>
