<svg width="24" height="25" viewBox="0 0 24 25" fill="none" xmlns="http://www.w3.org/2000/svg">
<path d="M21.2691 12.7199L21.3767 12.5L21.2691 12.2801C19.5355 8.7395 15.9818 6.5 12 6.5C8.01821 6.5 4.46448 8.7395 2.73094 12.2801L2.62329 12.5L2.73094 12.7199C4.46448 16.2605 8.01821 18.5 12 18.5C15.9818 18.5 19.5355 16.2605 21.2691 12.7199ZM1.53928 12.5C3.24223 8.39095 7.28287 5.5 12 5.5C16.7171 5.5 20.7578 8.39095 22.4607 12.5C20.7578 16.6091 16.7171 19.5 12 19.5C7.28287 19.5 3.24223 16.6091 1.53928 12.5ZM15 12.5C15 10.8439 13.6561 9.5 12 9.5C10.3439 9.5 9 10.8439 9 12.5C9 14.1561 10.3439 15.5 12 15.5C13.6561 15.5 15 14.1561 15 12.5ZM8 12.5C8 10.2961 9.79614 8.5 12 8.5C14.2039 8.5 16 10.2961 16 12.5C16 14.7039 14.2039 16.5 12 16.5C9.79614 16.5 8 14.7039 8 12.5Z" fill="black" stroke="#A1A1AA"/>
</svg>
